<svg width="60" height="60" viewBox="0 0 60 60" fill="none" xmlns="http://www.w3.org/2000/svg">
  <!-- Oval background -->
  <ellipse cx="30" cy="30" rx="28" ry="20" fill="#3B82F6" stroke="#1E40AF" stroke-width="2"/>
  
  <!-- Handshake hands -->
  <g transform="translate(15, 20)">
    <!-- Left hand -->
    <path d="M8 12 C8 8, 10 6, 12 6 C14 6, 16 8, 16 12 C16 16, 14 18, 12 18 C10 18, 8 16, 8 12 Z" fill="white"/>
    <path d="M8 12 C8 8, 10 6, 12 6 C14 6, 16 8, 16 12" stroke="white" stroke-width="1" fill="none"/>
    
    <!-- Right hand -->
    <path d="M22 12 C22 8, 20 6, 18 6 C16 6, 14 8, 14 12 C14 16, 16 18, 18 18 C20 18, 22 16, 22 12 Z" fill="white"/>
    <path d="M22 12 C22 8, 20 6, 18 6 C16 6, 14 8, 14 12" stroke="white" stroke-width="1" fill="none"/>
    
    <!-- Handshake connection -->
    <path d="M16 12 L14 12" stroke="white" stroke-width="2" stroke-linecap="round"/>
  </g>
</svg>
